PathFileType	4	(X/Y/Z)	/Users/itak/Documents/Research/Walk-IL/dataset/trc/00002_00004.trc
DataRate	CameraRate	NumFrames	NumMarkers	Units	OrigDataRate	OrigDataStartFrame	OrigNumFrames
100.000000	100.000000	4	54	mm	100.000000	464	531
Frame#	Time	RPSI			LPSI			L3			STRN			T10			C7			CLAV			RBAK			LBAK			LSHO			LUPA			LAEL			LAOL			LWTS			LWPS			LFRA			LIFD			LHPS			LHTS			RSHO			RUPA			RAEL			RAOL			RWTS			RWPS			RFRA			RIFD			RHTS			RHPS			RBHD			LFHD			RFHD			LBHD			LHIP			RHIP			RASI			LASI			LKNE			LTHI			LANK			LTIP			LTOE			LMT1			LMT5			LHEE			RKNE			RTHI			RANK			RTIP			RTOE			RMT1			RMT5			RHEE			*53			
		X1	Y1	Z1	X2	Y2	Z2	X3	Y3	Z3	X4	Y4	Z4	X5	Y5	Z5	X6	Y6	Z6	X7	Y7	Z7	X8	Y8	Z8	X9	Y9	Z9	X10	Y10	Z10	X11	Y11	Z11	X12	Y12	Z12	X13	Y13	Z13	X14	Y14	Z14	X15	Y15	Z15	X16	Y16	Z16	X17	Y17	Z17	X18	Y18	Z18	X19	Y19	Z19	X20	Y20	Z20	X21	Y21	Z21	X22	Y22	Z22	X23	Y23	Z23	X24	Y24	Z24	X25	Y25	Z25	X26	Y26	Z26	X27	Y27	Z27	X28	Y28	Z28	X29	Y29	Z29	X30	Y30	Z30	X31	Y31	Z31	X32	Y32	Z32	X33	Y33	Z33	X34	Y34	Z34	X35	Y35	Z35	X36	Y36	Z36	X37	Y37	Z37	X38	Y38	Z38	X39	Y39	Z39	X40	Y40	Z40	X41	Y41	Z41	X42	Y42	Z42	X43	Y43	Z43	X44	Y44	Z44	X45	Y45	Z45	X46	Y46	Z46	X47	Y47	Z47	X48	Y48	Z48	X49	Y49	Z49	X50	Y50	Z50	X51	Y51	Z51	X52	Y52	Z52	X53	Y53	Z53	X54	Y54	Z54	

465	4.64	999.670654296875	1031.484497070312	-184.7352752685547	945.8003540039062	1030.253662109375	-340.2382507324219	965.7192993164062	1098.982543945312	-270.718994140625	1180.109252929688	1293.093994140625	-321.6596374511719	932.4557495117188	1242.284057617188	-273.8594360351562	975.8439331054688	1509.5380859375	-301.0365905761719	1134.257446289062	1417.612915039062	-320.3191833496094	938.1635131835938	1374.41064453125	-210.4062805175781	943.7127075195312	1468.569213867188	-394.9131164550781	1033.739990234375	1471.776489257812	-483.5146789550781	984.0850219726562	1348.397216796875	-552.321533203125	960.2008666992188	1133.963012695312	-572.99560546875	922.9383544921875	1123.441650390625	-473.9020080566406	1065.9853515625	889.2201538085938	-538.7275390625	980.4552001953125	867.5746459960938	-559.8125610351562	971.1783447265625	1018.198364257812	-580.6343383789062	1105.582641601562	706.70361328125	-524.3766479492188	1017.86767578125	779.9849853515625	-566.2597045898438	1086.83642578125	794.6503295898438	-555.818115234375	1081.3271484375	1498.039306640625	-141.6629638671875	1078.150146484375	1428.6123046875	-66.20442962646484	1038.680053710938	1164.644287109375	-25.63276481628418	1022.097534179688	1132.597778320312	-119.1508865356445	1156.114013671875	901.8634033203125	-63.87629699707031	1103.024780273438	891.1348876953125	10.12192153930664	1052.622802734375	1089.383911132812	-8.827878952026367	1170.996826171875	717.5904541015625	-78.28731536865234	1189.447875976562	792.5010375976562	-51.67087554931641	1142.005859375	789.6438598632812	6.044315814971924	1041.45703125	1695.80712890625	-375.1670227050781	1223.328247070312	1690.006469726562	-253.9170684814453	1222.7666015625	1694.057861328125	-352.4919738769531	1049.7119140625	1684.9970703125	-231.5179595947266	1008.750366210938	938.1046752929688	-472.33203125	1147.558837890625	935.7706909179688	-123.2464065551758	1217.754760742188	970.2212524414062	-223.4147491455078	1140.842529296875	981.7813110351562	-446.7672424316406	1045.834350585938	485.1632995605469	-481.816162109375	1025.056518554688	633.6138305664062	-494.1807861328125	642.2459716796875	160.7955932617188	-442.0672912597656	831.5634765625	333.3882446289062	-478.7219848632812	795.0800170898438	27.77378273010254	-351.5496826171875	758.4901123046875	73.32180023193359	-344.4024658203125	722.5702514648438	61.80203247070312	-444.0446472167969	602.95703125	226.307861328125	-398.518798828125	1261.361083984375	522.2774658203125	-189.1445465087891	1200.146606445312	782.5027465820312	-132.4210205078125	1224.174194335938	28.37064552307129	-205.9798736572266	1264.816040039062	393.3028869628906	-189.7830505371094	1446.345947265625	25.65902519226074	-282.761962890625	1379.136474609375	31.79291343688965	-301.57373046875	1374.262329101562	26.63948249816895	-205.4514465332031	1162.055541992188	30.01811027526855	-241.8888854980469	nan	nan	nan	
466	4.65	1007.4326171875	1033.013305664062	-183.7395935058594	953.6851196289062	1031.526733398438	-339.1903076171875	973.42138671875	1100.425537109375	-269.53662109375	1188.133056640625	1294.236206054688	-320.5563659667969	940.5548095703125	1243.771118164062	-272.5842895507812	984.0993041992188	1510.944458007812	-299.7224426269531	1142.4453125	1418.849731445312	-319.1546936035156	946.38232421875	1375.809326171875	-209.0582275390625	951.8941040039062	1470.079833984375	-393.6274108886719	1041.909912109375	1473.189208984375	-482.2091674804688	992.0678100585938	1349.859741210938	-551.0067749023438	967.9666748046875	1135.41845703125	-571.5474853515625	930.5110473632812	1125.103637695312	-472.5269470214844	1073.43115234375	890.6583862304688	-536.7078247070312	987.9776000976562	869.0142211914062	-558.0768432617188	978.828369140625	1019.649353027344	-579.036865234375	1112.7548828125	708.0717163085938	-521.6583862304688	1025.298706054688	781.3623046875	-564.1795654296875	1094.216918945312	795.965576171875	-553.4442138671875	1089.767456054688	1499.388793945312	-140.5322265625	1086.505493164062	1430.016479492188	-64.94973754882812	1047.31494140625	1166.040771484375	-23.91179084777832	1030.50830078125	1133.847778320312	-117.3707962036133	1166.347534179688	904.12060546875	-62.73148727416992	1113.4755859375	892.8010864257812	11.42591857910156	1061.593017578125	1090.73583984375	-7.131289005279541	1182.271606445312	720.1255493164062	-77.09857177734375	1200.77587890625	795.1246948242188	-50.43055725097656	1153.4423828125	791.71484375	7.296648025512695	1049.652465820312	1697.122436523438	-373.7620849609375	1231.4833984375	1691.339111328125	-252.4510955810547	1230.945190429688	1695.476928710938	-350.9819641113281	1057.878540039062	1686.198852539062	-230.1127319335938	1016.310852050781	939.1700439453125	-471.6343383789062	1154.908081054688	936.6959228515625	-122.428840637207	1225.277954101562	971.0828857421875	-222.573974609375	1148.2177734375	983.2359008789062	-445.8090515136719	1060.19140625	485.6807250976562	-482.1789855957031	1037.17138671875	634.1516723632812	-494.126708984375	651.3712158203125	168.005859375	-442.4064331054688	844.1234741210938	336.3257751464844	-479.2351379394531	801.9036865234375	28.60657119750977	-355.5211181640625	766.9052734375	76.26123046875	-347.2671203613281	729.154541015625	67.22386932373047	-446.2129211425781	613.7999267578125	233.6345367431641	-397.903076171875	1265.242309570312	522.0223999023438	-188.6584014892578	1207.015258789062	783.2288818359375	-131.6243591308594	1224.152099609375	28.46355819702148	-206.1119232177734	1267.597045898438	393.0126037597656	-189.2849426269531	1446.50537109375	25.5322151184082	-282.8967895507812	1379.159545898438	31.60641860961914	-301.4829406738281	1374.366088867188	26.58847236633301	-205.4498291015625	1162.048217773438	30.08287811279297	-241.8976440429688	nan	nan	nan	
467	4.66	1014.926818847656	1034.454467773438	-182.8434295654297	961.4715576171875	1032.710815429688	-338.2817077636719	980.8310546875	1101.809692382812	-268.4492492675781	1195.928100585938	1295.30078125	-319.5175476074219	948.4439697265625	1245.219604492188	-271.3324890136719	992.18017578125	1512.311157226562	-298.4526977539062	1150.429565429688	1420.010009765625	-318.0480346679688	954.437255859375	1377.18701171875	-207.7241821289062	959.8638305664062	1471.528198242188	-392.3501892089844	1049.847412109375	1474.51953125	-480.9501647949219	999.8073120117188	1351.217529296875	-549.7144165039062	975.5899658203125	1136.778198242188	-570.1334228515625	937.937744140625	1126.641845703125	-471.203369140625	1080.837524414062	891.9817504882812	-534.6945190429688	995.5066528320312	870.3619384765625	-556.3948364257812	986.4078979492188	1021.005249023438	-577.4812622070312	1120.005493164062	709.3858642578125	-518.977294921875	1032.783813476562	782.6749267578125	-562.1505737304688	1101.647705078125	797.2681274414062	-551.1256713867188	1098.090209960938	1500.683471679688	-139.4573364257812	1094.743896484375	1431.382568359375	-63.75234985351562	1055.787719726562	1167.412109375	-22.19972801208496	1038.703125	1135.064575195312	-115.6051330566406	1176.536865234375	906.4485473632812	-61.66353607177734	1123.884765625	894.4673461914062	12.66477870941162	1070.410522460938	1092.05712890625	-5.45518159866333	1193.653442382812	722.7388305664062	-76.00393676757812	1212.156616210938	797.8339233398438	-49.26689910888672	1164.926879882812	793.8247680664062	8.475576400756836	1057.716674804688	1698.37890625	-372.4246826171875	1239.494140625	1692.608032226562	-251.0358123779297	1238.992553710938	1696.827392578125	-349.5163269042969	1065.88671875	1687.336303710938	-228.7823028564453	1023.737854003906	940.22119140625	-471.1160888671875	1161.944091796875	937.5238647460938	-121.6606063842773	1232.5439453125	971.8743286132812	-221.7769927978516	1155.4072265625	984.633544921875	-444.9180297851562	1074.48486328125	486.2879943847656	-482.1591491699219	1049.215942382812	634.70068359375	-493.8467102050781	661.1364135742188	174.6305389404297	-442.6630249023438	856.7811889648438	339.094970703125	-479.4949035644531	810.236083984375	29.87039756774902	-360.4081726074219	776.5247192382812	78.97735595703125	-350.7440185546875	737.0430908203125	72.78030395507812	-449.0129089355469	625.0228271484375	239.9153594970703	-396.8309326171875	1268.919311523438	521.7537841796875	-188.1998748779297	1213.570678710938	783.8583374023438	-130.8765411376953	1224.140502929688	28.56019973754883	-206.2507781982422	1270.1826171875	392.7261657714844	-188.8073577880859	1446.717407226562	25.37764549255371	-283.034423828125	1379.222045898438	31.47665786743164	-301.4245910644531	1374.45947265625	26.54440689086914	-205.4490814208984	1162.0556640625	30.1607723236084	-241.9062805175781	nan	nan	nan	
468	4.67	1022.133850097656	1035.812744140625	-182.0541076660156	969.1493530273438	1033.822509765625	-337.5142517089844	987.9625854492188	1103.1337890625	-267.4649047851562	1203.490966796875	1296.294921875	-318.5379333496094	956.1123657226562	1246.617919921875	-270.1115417480469	1000.075988769531	1513.632934570312	-297.2254943847656	1158.199096679688	1421.093872070312	-316.9928894042969	962.3233642578125	1378.534057617188	-206.4119873046875	967.6046752929688	1472.904052734375	-391.0739440917969	1057.53955078125	1475.774169921875	-479.7447509765625	1007.295593261719	1352.471313476562	-548.4404296875	983.0580444335938	1138.03955078125	-568.7379760742188	945.2465209960938	1128.052124023438	-469.9021606445312	1088.193603515625	893.1866455078125	-532.7066040039062	1003.019836425781	871.617919921875	-554.7529907226562	993.897705078125	1022.264343261719	-575.9549560546875	1127.34814453125	710.6632080078125	-516.4142456054688	1040.3046875	783.9208374023438	-560.1853637695312	1109.11083984375	798.5413208007812	-548.8994140625	1106.270751953125	1501.91259765625	-138.4292755126953	1102.8564453125	1432.703125	-62.61135101318359	1064.119018554688	1168.747314453125	-20.50479507446289	1046.713989257812	1136.236694335938	-113.8524627685547	1186.675903320312	908.8164672851562	-60.66792678833008	1134.248291015625	896.123291015625	13.83890914916992	1079.10498046875	1093.3408203125	-3.803335666656494	1205.111572265625	725.3843994140625	-75.03589630126953	1223.532470703125	800.5808715820312	-48.2045783996582	1176.413330078125	795.9483642578125	9.56639289855957	1065.649536132812	1699.583984375	-371.155517578125	1247.364990234375	1693.798706054688	-249.6784820556641	1246.909301757812	1698.093383789062	-348.1094055175781	1073.740234375	1688.420166015625	-227.5261688232422	1031.049926757812	941.2697143554688	-470.7620239257812	1168.66259765625	938.2630004882812	-120.924186706543	1239.557983398438	972.6038818359375	-220.996826171875	1162.425537109375	985.9576416015625	-444.0697021484375	1088.6181640625	487.0065307617188	-481.802490234375	1061.059326171875	635.2948608398438	-493.3680114746094	671.5785522460938	180.4772033691406	-442.85498046875	869.487060546875	341.6410522460938	-479.5076599121094	820.1705322265625	31.49486541748047	-366.072265625	787.3729858398438	81.37097930908203	-354.74169921875	746.3597412109375	78.33953094482422	-452.3782043457031	636.6034545898438	244.9537658691406	-395.35595703125	1272.396362304688	521.4736328125	-187.7630157470703	1219.808715820312	784.3997192382812	-130.1596374511719	1224.1376953125	28.6586971282959	-206.3915710449219	1272.585693359375	392.4548645019531	-188.3482055664062	1446.967529296875	25.2119197845459	-283.171142578125	1379.327758789062	31.40578269958496	-301.4185180664062	1374.544677734375	26.51071166992188	-205.4555511474609	1162.078735351562	30.25403594970703	-241.9137268066406	nan	nan	nan	
